# xmcd
#
# Track frame offsets: 
#        150
#        23834
#        38924
#        60932
#        79224
#        92924
#        117136
#        155577
#
# Disc length: 2378 seconds
#
# Revision: 5
# Processed by: cddbd v1.5.2PL0 Copyright (c) Steve Scherf et al.
# Submitted via: ExactAudioCopyFreeDBPlugin 1.0
#
DISCID=5a094808
DTITLE=Keb Mo - Live - That Hot Pink Blues Album
DYEAR=2016
DGENRE=Blues
TTITLE0=Come On Back (Live)
TTITLE1=France (Live)
TTITLE2=More Than One Way Home (Live)
TTITLE3=A Better Man (Live)
TTITLE4=The Old Me Better (Live)
TTITLE5=Rita (Live)
TTITLE6=Dangerous Mood (Live)
TTITLE7=City Boy (Live) 
EXTD=YEAR: 2016
EXTT0=
EXTT1=
EXTT2=
EXTT3=
EXTT4=
EXTT5=
EXTT6=
EXTT7=
PLAYORDER=
